#N canvas 283 576 776 341 10;
#X obj 16 17 notein;
#X floatatom 16 298 5 0 0 1 MIDI_note_number_of_bass_note - -;
#X floatatom 33 275 5 0 0 1 class_of_bass_note - -;
#X symbolatom 50 252 30 0 0 1 notes_in_chord:_chord_name - -;
#X floatatom 67 229 5 0 0 1 root_pos(0)_1st_inversion(1)_2nd_inversion(2)
- -;
#X obj 85 81 unpack f f f f f f;
#X floatatom 85 114 5 0 0 0 - - -;
#X floatatom 127 114 5 0 0 0 - - -;
#X floatatom 170 114 5 0 0 0 - - -;
#X floatatom 212 114 5 0 0 0 - - -;
#X floatatom 255 114 5 0 0 0 - - -;
#X floatatom 298 114 5 0 0 0 - - -;
#X text 204 82 list of chord notes;
#X obj 341 20 loadbang;
#X obj 100 51 sel 0;
#X obj 16 51 maxlib/chord;
#X msg 341 82 0;
#N canvas 536 90 340 344 chord_audio_out 0;
#X obj 16 67 mtof;
#X obj 71 67 mtof;
#X obj 126 67 mtof;
#X obj 181 67 mtof;
#X obj 181 88 osc~;
#X obj 226 67 mtof;
#X obj 226 88 osc~;
#X obj 271 67 mtof;
#X obj 271 88 osc~;
#X obj 16 88 osc.sin~;
#X obj 71 88 osc.sin~;
#X obj 126 88 osc.sin~;
#X obj 16 109 *~ 0.1;
#X obj 71 109 *~ 0.2;
#X obj 126 109 *~ 0.3;
#X obj 181 109 *~ 0.4;
#X obj 226 109 *~ 0.5;
#X obj 271 109 *~ 0.6;
#X obj 16 17 inlet;
#X obj 71 17 inlet;
#X obj 126 17 inlet;
#X obj 181 17 inlet;
#X obj 226 17 inlet;
#X obj 271 17 inlet;
#X obj 16 42 spigot;
#X obj 71 42 spigot;
#X obj 126 42 spigot;
#X obj 181 42 spigot;
#X obj 226 42 spigot;
#X obj 271 42 spigot;
#X obj 16 177 outlet~;
#X connect 0 0 9 0;
#X connect 1 0 10 0;
#X connect 2 0 11 0;
#X connect 3 0 4 0;
#X connect 4 0 15 0;
#X connect 5 0 6 0;
#X connect 6 0 16 0;
#X connect 7 0 8 0;
#X connect 8 0 17 0;
#X connect 9 0 12 0;
#X connect 10 0 13 0;
#X connect 11 0 14 0;
#X connect 12 0 30 0;
#X connect 13 0 30 0;
#X connect 14 0 30 0;
#X connect 15 0 30 0;
#X connect 16 0 30 0;
#X connect 17 0 30 0;
#X connect 18 0 24 0;
#X connect 19 0 25 0;
#X connect 20 0 26 0;
#X connect 21 0 27 0;
#X connect 22 0 28 0;
#X connect 23 0 29 0;
#X connect 24 0 0 0;
#X connect 25 0 1 0;
#X connect 26 0 2 0;
#X connect 27 0 3 0;
#X connect 28 0 5 0;
#X connect 29 0 7 0;
#X restore 85 143 pd chord_audio_out;
#X f 36;
#X obj 85 169 cyclone/out~;
#N canvas 103 99 412 223 workingtest 0;
#X obj 20 23 bng 15 250 50 0 empty empty empty 17 7 0 10 -262144 -1
-1;
#X obj 46 53 f;
#X obj 73 53 + 1;
#X floatatom 46 74 4 0 0 0 - - -;
#X obj 20 74 1;
#X obj 20 95 /;
#X floatatom 20 116 3 0 0 0 - - -;
#X obj 46 94 sel 0;
#X obj 46 116 bng 15 250 50 0 empty empty empty 17 7 0 10 -262144 -1
-1;
#X obj 65 116 bng 15 250 50 0 empty empty empty 17 7 0 10 -262144 -1
-1;
#X obj 137 22 window hann 256;
#X obj 137 48 cyclone/scope~ 144 144 256 3 128 -1 1 0 0 0 0 0 255 4
74 79 77 96 98 102 0;
#X connect 0 0 1 0;
#X connect 0 0 4 0;
#X connect 1 0 2 0;
#X connect 1 0 3 0;
#X connect 2 0 1 1;
#X connect 3 0 7 0;
#X connect 3 0 5 1;
#X connect 4 0 5 0;
#X connect 5 0 6 0;
#X connect 7 0 8 0;
#X connect 7 1 9 0;
#X restore 434 19 pd workingtest;
#X obj 435 80 cnv 15 310 180 empty empty empty 20 12 0 14 -233017 -66577
0;
#X text 449 93 This project requires "cyclone" and "maxlib" externals
that you can install from Deken 1: Help->"Find Externals" 2: search
for cyclone and maxlib individually and install latest one for each
3: Reopen the Pd and you're good to go 4: Open Preferences->MIDI to
setup which MIDI channel you're gonna use then "notein" object can
read the MIDI input from your device 5: turn on/off "dsp" toggle in
cyclone/out~ obj to play test sound or not;
#X connect 0 0 15 0;
#X connect 0 1 14 0;
#X connect 0 1 15 1;
#X connect 5 0 6 0;
#X connect 5 1 7 0;
#X connect 5 2 8 0;
#X connect 5 3 9 0;
#X connect 5 4 10 0;
#X connect 5 5 11 0;
#X connect 6 0 17 0;
#X connect 7 0 17 1;
#X connect 8 0 17 2;
#X connect 9 0 17 3;
#X connect 10 0 17 4;
#X connect 11 0 17 5;
#X connect 13 0 16 0;
#X connect 14 0 16 0;
#X connect 15 0 1 0;
#X connect 15 1 2 0;
#X connect 15 2 3 0;
#X connect 15 3 4 0;
#X connect 15 4 5 0;
#X connect 16 0 6 0;
#X connect 16 0 7 0;
#X connect 16 0 8 0;
#X connect 16 0 9 0;
#X connect 16 0 10 0;
#X connect 16 0 11 0;
#X connect 17 0 18 0;
#X connect 17 0 18 1;
